<svg width="188" height="96" viewBox="0 0 188 96" fill="none" xmlns="http://www.w3.org/2000/svg">
<rect width="90" height="90" fill="#0A0E14"/>
<g filter="url(#filter0_d_4_13)">
<path d="M54.24 61.56H60.16V72.92C58.64 74.0667 56.88 74.9467 54.88 75.56C52.88 76.1733 50.8667 76.48 48.84 76.48C45.9333 76.48 43.32 75.8667 41 74.64C38.68 73.3867 36.8533 71.6667 35.52 69.48C34.2133 67.2667 33.56 64.7733 33.56 62C33.56 59.2267 34.2133 56.7467 35.52 54.56C36.8533 52.3467 38.6933 50.6267 41.04 49.4C43.3867 48.1467 46.0267 47.52 48.96 47.52C51.4133 47.52 53.64 47.9333 55.64 48.76C57.64 49.5867 59.32 50.7867 60.68 52.36L56.52 56.2C54.52 54.0933 52.1067 53.04 49.28 53.04C47.4933 53.04 45.9067 53.4133 44.52 54.16C43.1333 54.9067 42.0533 55.96 41.28 57.32C40.5067 58.68 40.12 60.24 40.12 62C40.12 63.7333 40.5067 65.28 41.28 66.64C42.0533 68 43.12 69.0667 44.48 69.84C45.8667 70.5867 47.44 70.96 49.2 70.96C51.0667 70.96 52.7467 70.56 54.24 69.76V61.56ZM74.4194 54.16C77.7527 54.16 80.3127 54.96 82.0994 56.56C83.886 58.1333 84.7794 60.52 84.7794 63.72V76H78.9394V73.32C77.766 75.32 75.5794 76.32 72.3794 76.32C70.726 76.32 69.286 76.04 68.0594 75.48C66.8594 74.92 65.9394 74.1467 65.2994 73.16C64.6594 72.1733 64.3394 71.0533 64.3394 69.8C64.3394 67.8 65.086 66.2267 66.5794 65.08C68.0994 63.9333 70.4327 63.36 73.5794 63.36H78.5394C78.5394 62 78.126 60.96 77.2994 60.24C76.4727 59.4933 75.2327 59.12 73.5794 59.12C72.4327 59.12 71.2994 59.3067 70.1794 59.68C69.086 60.0267 68.1527 60.5067 67.3794 61.12L65.1394 56.76C66.3127 55.9333 67.7127 55.2933 69.3394 54.84C70.9927 54.3867 72.686 54.16 74.4194 54.16ZM73.9394 72.12C75.006 72.12 75.9527 71.88 76.7794 71.4C77.606 70.8933 78.1927 70.16 78.5394 69.2V67H74.2594C71.6994 67 70.4194 67.84 70.4194 69.52C70.4194 70.32 70.726 70.96 71.3394 71.44C71.9794 71.8933 72.846 72.12 73.9394 72.12ZM103.147 54.16C105.147 54.16 106.96 54.6267 108.587 55.56C110.24 56.4667 111.534 57.76 112.467 59.44C113.4 61.0933 113.867 63.0267 113.867 65.24C113.867 67.4533 113.4 69.4 112.467 71.08C111.534 72.7333 110.24 74.0267 108.587 74.96C106.96 75.8667 105.147 76.32 103.147 76.32C100.187 76.32 97.9335 75.3867 96.3869 73.52V76H90.4269V46.32H96.6669V56.76C98.2402 55.0267 100.4 54.16 103.147 54.16ZM102.067 71.2C103.667 71.2 104.974 70.6667 105.987 69.6C107.027 68.5067 107.547 67.0533 107.547 65.24C107.547 63.4267 107.027 61.9867 105.987 60.92C104.974 59.8267 103.667 59.28 102.067 59.28C100.467 59.28 99.1469 59.8267 98.1069 60.92C97.0935 61.9867 96.5869 63.4267 96.5869 65.24C96.5869 67.0533 97.0935 68.5067 98.1069 69.6C99.1469 70.6667 100.467 71.2 102.067 71.2ZM124.004 57.32C124.751 56.28 125.751 55.4933 127.004 54.96C128.284 54.4267 129.751 54.16 131.404 54.16V59.92C130.711 59.8667 130.244 59.84 130.004 59.84C128.217 59.84 126.817 60.3467 125.804 61.36C124.791 62.3467 124.284 63.84 124.284 65.84V76H118.044V54.48H124.004V57.32ZM135.114 54.48H141.354V76H135.114V54.48ZM138.234 51.48C137.088 51.48 136.154 51.1467 135.434 50.48C134.714 49.8133 134.354 48.9867 134.354 48C134.354 47.0133 134.714 46.1867 135.434 45.52C136.154 44.8533 137.088 44.52 138.234 44.52C139.381 44.52 140.314 44.84 141.034 45.48C141.754 46.12 142.114 46.92 142.114 47.88C142.114 48.92 141.754 49.7867 141.034 50.48C140.314 51.1467 139.381 51.48 138.234 51.48ZM168.226 65.32C168.226 65.4 168.186 65.96 168.106 67H151.826C152.119 68.3333 152.812 69.3867 153.906 70.16C154.999 70.9333 156.359 71.32 157.986 71.32C159.106 71.32 160.092 71.16 160.946 70.84C161.826 70.4933 162.639 69.96 163.386 69.24L166.706 72.84C164.679 75.16 161.719 76.32 157.826 76.32C155.399 76.32 153.252 75.8533 151.386 74.92C149.519 73.96 148.079 72.64 147.066 70.96C146.052 69.28 145.546 67.3733 145.546 65.24C145.546 63.1333 146.039 61.24 147.026 59.56C148.039 57.8533 149.412 56.5333 151.146 55.6C152.906 54.64 154.866 54.16 157.026 54.16C159.132 54.16 161.039 54.6133 162.746 55.52C164.452 56.4267 165.786 57.7333 166.746 59.44C167.732 61.12 168.226 63.08 168.226 65.32ZM157.066 58.88C155.652 58.88 154.466 59.28 153.506 60.08C152.546 60.88 151.959 61.9733 151.746 63.36H162.346C162.132 62 161.546 60.92 160.586 60.12C159.626 59.2933 158.452 58.88 157.066 58.88ZM172.38 46.32H178.62V76H172.38V46.32Z" fill="#F5F5F5"/>
</g>
<defs>
<filter id="filter0_d_4_13" x="29.56" y="44.52" width="153.06" height="39.96" filterUnits="userSpaceOnUse" color-interpolation-filters="sRGB">
<feFlood flood-opacity="0" result="BackgroundImageFix"/>
<feColorMatrix in="SourceAlpha" type="matrix" values="0 0 0 0 0 0 0 0 0 0 0 0 0 0 0 0 0 0 127 0" result="hardAlpha"/>
<feOffset dy="4"/>
<feGaussianBlur stdDeviation="2"/>
<feComposite in2="hardAlpha" operator="out"/>
<feColorMatrix type="matrix" values="0 0 0 0 0 0 0 0 0 0 0 0 0 0 0 0 0 0 0.25 0"/>
<feBlend mode="normal" in2="BackgroundImageFix" result="effect1_dropShadow_4_13"/>
<feBlend mode="normal" in="SourceGraphic" in2="effect1_dropShadow_4_13" result="shape"/>
</filter>
</defs>
</svg>
